<svg width="32" height="32" viewBox="0 0 48 48" fill="none" xmlns="http://www.w3.org/2000/svg">
<path d="M38 44H12V4H38C40.2 4 42 5.8 42 8V40C42 42.2 40.2 44 38 44Z" fill="#8D8AB2"/>
<path d="M10 4H12V44H10C7.8 44 6 42.2 6 40V8C6 5.8 7.8 4 10 4Z" fill="#706E91"/>
<path d="M26 24C28.2091 24 30 22.2091 30 20C30 17.7909 28.2091 16 26 16C23.7909 16 22 17.7909 22 20C22 22.2091 23.7909 24 26 24Z" fill="#3F3D56"/>
<path d="M33 30C33 30 31.1 26 26 26C20.9 26 19 30 19 30V32H33V30Z" fill="#3F3D56"/>
</svg>
